#!OML:ASF F:\VICON\USERDATA\INSTALL\SteveWalk\SteveWalk.ASF
:FULLY-SPECIFIED
:DEGREES


322
root 0.465804 16.2695 22.2014 17.1235 2.90205 2.06455
lowerback -14.2624 -1.78067 -4.34088
upperback -5.42713 -1.74513 -0.51225
thorax 2.36905 -0.832336 1.63235
lowerneck -3.98316 -1.14436 -1.31138
upperneck 11.5469 -1.77536 2.96954
head 4.58187 -0.786287 1.14796
rclavicle -3.2127e-014 -1.17283e-014
rhumerus -70.6003 -41.5911 -31.579
rradius 10.0971
rwrist 50.1616
rhand -12.283 -34.8798
rfingers 7.12502
rthumb 13.7843 -64.4032
lclavicle -3.2127e-014 -1.17283e-014
lhumerus -23.8284 0.314964 82.5946
lradius 31.8008
lwrist 9.10512
lhand -20.0003 -13.6295
lfingers 7.12502
lthumb 6.33952 16.2556
rfemur -48.2089 -4.2565 21.0665
rtibia 49.8206
rfoot -13.0505 -5.29268
rtoes 5.44527
lfemur -20.4832 6.27874 -25.8539
ltibia 31.5553
lfoot -25.5696 -10.7061
ltoes -8.08111
323
root 0.456562 16.2603 22.4051 16.9839 3.10578 2.25433
lowerback -14.1902 -1.82864 -4.61281
upperback -5.2566 -1.77057 -0.513008
thorax 2.51781 -0.847849 1.77944
lowerneck -4.25858 -1.25799 -1.37813
upperneck 11.6419 -1.93469 3.06285
head 4.67977 -0.860168 1.18373
rclavicle -5.14511e-015 -1.49089e-014
rhumerus -72.7492 -41.8905 -28.6813
rradius 9.63261
rwrist 52.2281
rhand -12.2926 -35.73
rfingers 7.12502
rthumb 13.775 -65.254
lclavicle -5.14511e-015 -1.49089e-014
lhumerus -22.7287 -1.22747 82.8319
lradius 33.0979
lwrist 9.98536
lhand -20.0157 -13.7564
lfingers 7.12502
lthumb 6.3247 16.1292
rfemur -48.1237 -4.2116 20.997
rtibia 46.6351
rfoot -12.7566 -5.80442
rtoes 2.93095
lfemur -18.9756 6.69926 -25.8686
ltibia 30.508
lfoot -25.6474 -10.7545
ltoes -10.3823
324
root 0.457097 16.2381 22.6076 16.8982 3.50465 2.27545
lowerback -14.2902 -1.88515 -4.53702
upperback -5.07456 -1.84536 -0.466439
thorax 2.7677 -0.892339 1.76778
lowerneck -4.3827 -1.33179 -1.41447
upperneck 11.5974 -2.02975 3.06858
head 4.69211 -0.907406 1.18656
rclavicle 6.17601e-015 9.74045e-015
rhumerus -74.9509 -42.0868 -25.7199
rradius 9.86328
rwrist 52.7379
rhand -11.4329 -36.7935
rfingers 7.12502
rthumb 14.6034 -66.2593
lclavicle 6.17601e-015 9.74045e-015
lhumerus -21.6301 -2.52449 83.0571
lradius 34.2487
lwrist 10.7469
lhand -20.2678 -14.011
lfingers 7.12502
lthumb 6.08131 15.8817
rfemur -47.9782 -4.51204 21.2
rtibia 43.4277
rfoot -13.1082 -5.90912
rtoes -2.39706
lfemur -17.5276 7.06845 -25.6921
ltibia 29.546
lfoot -26.1281 -9.96269
ltoes -16.3133
325
root 0.464637 16.2216 22.8118 16.8705 3.9743 2.39239
lowerback -14.2905 -1.98232 -4.43527
upperback -5.09071 -1.98709 -0.466087
thorax 2.75718 -0.962548 1.68727
lowerneck -3.9556 -1.4003 -1.37271
upperneck 11.3531 -2.12044 3.05592
head 4.51741 -0.955924 1.16919
rclavicle 1.49593e-015 -3.37934e-015
rhumerus -77.2471 -41.8975 -22.735
rradius 9.94067
rwrist 53.7563
rhand -11.5102 -36.5369
rfingers 7.12502
rthumb 14.5289 -66.0081
lclavicle 1.49593e-015 -3.37934e-015
lhumerus -20.9287 -3.75728 83.2069
lradius 35.4126
lwrist 11.3863
lhand -20.5916 -14.2191
lfingers 7.12502
lthumb 5.76868 15.6823
rfemur -47.9223 -5.06917 21.3111
rtibia 40.16
rfoot -13.4061 -5.49251
rtoes -5.36807
lfemur -16.1481 7.32063 -25.6036
ltibia 28.638
lfoot -26.4605 -9.75963
ltoes -19.557
326
root 0.453753 16.2088 23.017 16.9284 4.13929 2.84768
lowerback -14.2814 -2.09212 -5.00501
upperback -5.13365 -2.05349 -0.511827
thorax 2.72562 -0.990864 1.94945
lowerneck -3.72596 -1.48257 -1.3054
upperneck 11.2796 -2.23866 3.07845
head 4.44681 -1.01259 1.15886
rclavicle 1.17811e-014 -2.98177e-015
rhumerus -79.6306 -41.4439 -19.7015
rradius 10.1702
rwrist 54.7602
rhand -11.5956 -35.9026
rfingers 7.12502
rthumb 14.4466 -65.3797
lclavicle 1.17811e-014 -2.98177e-015
lhumerus -20.2069 -4.94844 83.2467
lradius 36.5855
lwrist 11.6027
lhand -20.8087 -14.3247
lfingers 7.12502
lthumb 5.55903 15.5824
rfemur -47.973 -4.95095 20.7927
rtibia 36.898
rfoot -13.2062 -5.29718
rtoes -6.55827
lfemur -14.9275 7.65908 -25.86
ltibia 27.693
lfoot -26.6196 -10.3958
ltoes -19.4213
327
root 0.451624 16.2052 23.2154 16.9224 4.73017 3.00981
lowerback -14.1649 -2.2639 -5.09561
upperback -5.0519 -2.27374 -0.462561
thorax 2.7697 -1.10148 2.01651
lowerneck -3.79251 -1.52599 -1.273
upperneck 11.1383 -2.29255 3.05102
head 4.40912 -1.03941 1.14001
rclavicle 2.68403e-015 1.39149e-014
rhumerus -78.8441 -40.5214 -21.2967
rradius 10.4475
rwrist 52.2606
rhand -11.8859 -35.7521
rfingers 7.12502
rthumb 14.1669 -65.2491
lclavicle 2.68403e-015 1.39149e-014
lhumerus -19.1696 -5.89405 83.1908
lradius 37.7094
lwrist 11.5078
lhand -20.9354 -14.1286
lfingers 7.12502
lthumb 5.43671 15.7816
rfemur -47.8269 -5.11351 20.5803
rtibia 33.6696
rfoot -12.9167 -4.73928
rtoes -6.12289
lfemur -13.6392 7.77381 -25.6946
ltibia 26.6201
lfoot -26.7488 -11.5262
ltoes -17.5612
